<svg id="visual" viewBox="0 0 360 275" width="360" height="275" xmlns="http://www.w3.org/2000/svg" xmlns:xlink="http://www.w3.org/1999/xlink" version="1.1"><rect x="0" y="0" width="360" height="275" fill="#05111c"></rect><path d="M0 165L7.5 169.8C15 174.7 30 184.3 45 184.5C60 184.7 75 175.3 90 173.7C105 172 120 178 135 181.8C150 185.7 165 187.3 180 187.3C195 187.3 210 185.7 225 187.3C240 189 255 194 270 193C285 192 300 185 315 181.2C330 177.3 345 176.7 352.5 176.3L360 176L360 276L352.5 276C345 276 330 276 315 276C300 276 285 276 270 276C255 276 240 276 225 276C210 276 195 276 180 276C165 276 150 276 135 276C120 276 105 276 90 276C75 276 60 276 45 276C30 276 15 276 7.5 276L0 276Z" fill="#0f2e4c"></path><path d="M0 225L7.5 222.8C15 220.7 30 216.3 45 211.8C60 207.3 75 202.7 90 201.8C105 201 120 204 135 205.5C150 207 165 207 180 207.7C195 208.3 210 209.7 225 211C240 212.3 255 213.7 270 215.3C285 217 300 219 315 220C330 221 345 221 352.5 221L360 221L360 276L352.5 276C345 276 330 276 315 276C300 276 285 276 270 276C255 276 240 276 225 276C210 276 195 276 180 276C165 276 150 276 135 276C120 276 105 276 90 276C75 276 60 276 45 276C30 276 15 276 7.5 276L0 276Z" fill="#0b243c"></path><path d="M0 241L7.5 240.3C15 239.7 30 238.3 45 239.2C60 240 75 243 90 244.2C105 245.3 120 244.7 135 241.5C150 238.3 165 232.7 180 234C195 235.3 210 243.7 225 246C240 248.3 255 244.7 270 244.2C285 243.7 300 246.3 315 247.5C330 248.7 345 248.3 352.5 248.2L360 248L360 276L352.5 276C345 276 330 276 315 276C300 276 285 276 270 276C255 276 240 276 225 276C210 276 195 276 180 276C165 276 150 276 135 276C120 276 105 276 90 276C75 276 60 276 45 276C30 276 15 276 7.5 276L0 276Z" fill="#081a2c"></path></svg>