<svg id="visual" viewBox="0 0 360 275" width="360" height="275" xmlns="http://www.w3.org/2000/svg" xmlns:xlink="http://www.w3.org/1999/xlink" version="1.1"><rect x="0" y="0" width="360" height="275" fill="#001220"></rect><path d="M0 62L7.5 64.2C15 66.3 30 70.7 45 75C60 79.3 75 83.7 90 83.3C105 83 120 78 135 77.2C150 76.3 165 79.7 180 77.7C195 75.7 210 68.3 225 66.5C240 64.7 255 68.3 270 72.8C285 77.3 300 82.7 315 83.3C330 84 345 80 352.5 78L360 76L360 0L352.5 0C345 0 330 0 315 0C300 0 285 0 270 0C255 0 240 0 225 0C210 0 195 0 180 0C165 0 150 0 135 0C120 0 105 0 90 0C75 0 60 0 45 0C30 0 15 0 7.5 0L0 0Z" fill="#fa7268"></path><path d="M0 51L7.5 53.5C15 56 30 61 45 63.7C60 66.3 75 66.7 90 66C105 65.3 120 63.7 135 64.5C150 65.3 165 68.7 180 66.2C195 63.7 210 55.3 225 52.2C240 49 255 51 270 52.3C285 53.7 300 54.3 315 57.3C330 60.3 345 65.7 352.5 68.3L360 71L360 0L352.5 0C345 0 330 0 315 0C300 0 285 0 270 0C255 0 240 0 225 0C210 0 195 0 180 0C165 0 150 0 135 0C120 0 105 0 90 0C75 0 60 0 45 0C30 0 15 0 7.5 0L0 0Z" fill="#eb5967"></path><path d="M0 39L7.5 37.3C15 35.7 30 32.3 45 32.3C60 32.3 75 35.7 90 38.5C105 41.3 120 43.7 135 43C150 42.3 165 38.7 180 39C195 39.3 210 43.7 225 46C240 48.3 255 48.7 270 48.8C285 49 300 49 315 45.5C330 42 345 35 352.5 31.5L360 28L360 0L352.5 0C345 0 330 0 315 0C300 0 285 0 270 0C255 0 240 0 225 0C210 0 195 0 180 0C165 0 150 0 135 0C120 0 105 0 90 0C75 0 60 0 45 0C30 0 15 0 7.5 0L0 0Z" fill="#da3f67"></path><path d="M0 19L7.5 18.5C15 18 30 17 45 17C60 17 75 18 90 17.5C105 17 120 15 135 14.2C150 13.3 165 13.7 180 15.3C195 17 210 20 225 19.7C240 19.3 255 15.7 270 13.8C285 12 300 12 315 11.8C330 11.7 345 11.3 352.5 11.2L360 11L360 0L352.5 0C345 0 330 0 315 0C300 0 285 0 270 0C255 0 240 0 225 0C210 0 195 0 180 0C165 0 150 0 135 0C120 0 105 0 90 0C75 0 60 0 45 0C30 0 15 0 7.5 0L0 0Z" fill="#c62368"></path></svg>